{
    "asset" : {
        "generator" : "Khronos glTF Blender I/O v3.2.43",
        "version" : "2.0"
    },
    "extensionsUsed" : [
        "KHR_materials_unlit"
    ],
    "scene" : 0,
    "scenes" : [
        {
            "name" : "Scene",
            "nodes" : [
                3,
                4,
                5,
                6,
                7,
                8,
                9,
                10,
                22,
                32
            ]
        }
    ],
    "nodes" : [
        {
            "mesh" : 0,
            "name" : "defaultMaterial"
        },
        {
            "children" : [
                0
            ],
            "name" : "Cube.006"
        },
        {
            "children" : [
                1
            ],
            "name" : "Collada visual scene group"
        },
        {
            "children" : [
                2
            ],
            "name" : "Sketchfab_model",
            "scale" : [
                0.10000000149011612,
                0.10000000149011612,
                0.10000000149011612
            ]
        },
        {
            "mesh" : 1,
            "name" : "Grass:Grass_Master4_Grass:Grass_MAT_0",
            "scale" : [
                0.009999999776482582,
                0.010000001639127731,
                0.010000001639127731
            ],
            "translation" : [
                -0.0007777214050292969,
                0.35946032404899597,
                0.010043500922620296
            ]
        },
        {
            "mesh" : 2,
            "name" : "Grass:Grass_low14_Grass:Grass_MAT_0",
            "scale" : [
                0.009999999776482582,
                0.010000001639127731,
                0.010000001639127731
            ],
            "translation" : [
                -0.0007777214050292969,
                0.35946032404899597,
                0.010043500922620296
            ]
        },
        {
            "mesh" : 3,
            "name" : "Grass:Grass_low3_Grass:Grass_MAT_0.001",
            "scale" : [
                0.009999999776482582,
                0.010000001639127731,
                0.010000001639127731
            ],
            "translation" : [
                -0.0007777214050292969,
                0.35946032404899597,
                0.010043500922620296
            ]
        },
        {
            "mesh" : 4,
            "name" : "Grass:Grass_low4_Grass:Grass_MAT_0",
            "scale" : [
                0.009999999776482582,
                0.010000001639127731,
                0.010000001639127731
            ],
            "translation" : [
                -0.0007777214050292969,
                0.35946032404899597,
                0.010043500922620296
            ]
        },
        {
            "mesh" : 5,
            "name" : "Grass:Grass_low1_Grass:Grass_MAT_0.001",
            "scale" : [
                0.009999999776482582,
                0.010000001639127731,
                0.010000001639127731
            ],
            "translation" : [
                -0.0007777214050292969,
                0.35946032404899597,
                0.010043500922620296
            ]
        },
        {
            "mesh" : 6,
            "name" : "Grass:Grass_low5_Grass:Grass_MAT_0",
            "scale" : [
                0.009999999776482582,
                0.010000001639127731,
                0.010000001639127731
            ],
            "translation" : [
                -0.0007777214050292969,
                0.35946032404899597,
                0.010043500922620296
            ]
        },
        {
            "mesh" : 7,
            "name" : "Grass:Grass_low2_Grass:Grass_MAT_0.001",
            "scale" : [
                0.009999999776482582,
                0.010000001639127731,
                0.010000001639127731
            ],
            "translation" : [
                -0.0007777214050292969,
                0.3594600558280945,
                0.010043500922620296
            ]
        },
        {
            "name" : "Grass:Grass_low10"
        },
        {
            "name" : "Grass:Grass_low11"
        },
        {
            "name" : "Grass:Grass_low12"
        },
        {
            "name" : "Grass:Grass_low13"
        },
        {
            "name" : "Grass:Grass_low6"
        },
        {
            "name" : "Grass:Grass_low7"
        },
        {
            "name" : "Grass:Grass_low8"
        },
        {
            "name" : "Grass:Grass_low9"
        },
        {
            "name" : "Grass:Grass_Master1"
        },
        {
            "name" : "Grass:Grass_Master2"
        },
        {
            "name" : "Grass:Grass_Master3"
        },
        {
            "children" : [
                11,
                12,
                13,
                14,
                15,
                16,
                17,
                18,
                19,
                20,
                21
            ],
            "name" : "Grass:Ckump02GRP",
            "scale" : [
                0.009999999776482582,
                0.010000001639127731,
                0.010000001639127731
            ],
            "translation" : [
                3.064424753189087,
                0,
                0
            ]
        },
        {
            "name" : "Grass:Grass_low1.001"
        },
        {
            "name" : "Grass:Grass_low14"
        },
        {
            "name" : "Grass:Grass_low2.001"
        },
        {
            "name" : "Grass:Grass_low3.001"
        },
        {
            "name" : "Grass:Grass_low4"
        },
        {
            "name" : "Grass:Grass_low5"
        },
        {
            "name" : "Grass:Grass_Master4"
        },
        {
            "mesh" : 8,
            "name" : "Grass:Grass_Master5_Grass:Grass_MAT_0",
            "translation" : [
                -306.5202331542969,
                35.94602584838867,
                1.0043498277664185
            ]
        },
        {
            "children" : [
                30
            ],
            "name" : "Grass:Grass_Master5"
        },
        {
            "children" : [
                23,
                24,
                25,
                26,
                27,
                28,
                29,
                31
            ],
            "name" : "Grass:Clump01GRP",
            "scale" : [
                0.009999999776482582,
                0.010000001639127731,
                0.010000001639127731
            ],
            "translation" : [
                3.064424753189087,
                0,
                0
            ]
        }
    ],
    "materials" : [
        {
            "doubleSided" : true,
            "extensions" : {
                "KHR_materials_unlit" : {}
            },
            "name" : "mushroom_friend.005",
            "pbrMetallicRoughness" : {
                "metallicFactor" : 0,
                "roughnessFactor" : 0.9
            }
        },
        {
            "alphaMode" : "BLEND",
            "doubleSided" : true,
            "name" : "GrassGrass_MAT",
            "pbrMetallicRoughness" : {
                "metallicFactor" : 0,
                "roughnessFactor" : 0.6000000238418579
            }
        },
        {
            "alphaMode" : "BLEND",
            "doubleSided" : true,
            "name" : "GrassGrass_MAT.001",
            "pbrMetallicRoughness" : {
                "metallicFactor" : 0,
                "roughnessFactor" : 0.6000000238418579
            }
        },
        {
            "alphaMode" : "BLEND",
            "doubleSided" : true,
            "name" : "GrassGrass_MAT.002",
            "pbrMetallicRoughness" : {
                "metallicFactor" : 0,
                "roughnessFactor" : 0.6000000238418579
            }
        },
        {
            "alphaMode" : "BLEND",
            "doubleSided" : true,
            "name" : "GrassGrass_MAT.003",
            "pbrMetallicRoughness" : {
                "metallicFactor" : 0,
                "roughnessFactor" : 0.6000000238418579
            }
        },
        {
            "alphaMode" : "BLEND",
            "doubleSided" : true,
            "name" : "GrassGrass_MAT.004",
            "pbrMetallicRoughness" : {
                "metallicFactor" : 0,
                "roughnessFactor" : 0.6000000238418579
            }
        },
        {
            "alphaMode" : "BLEND",
            "doubleSided" : true,
            "name" : "GrassGrass_MAT.005",
            "pbrMetallicRoughness" : {
                "metallicFactor" : 0,
                "roughnessFactor" : 0.6000000238418579
            }
        },
        {
            "alphaMode" : "BLEND",
            "doubleSided" : true,
            "name" : "GrassGrass_MAT.006",
            "pbrMetallicRoughness" : {
                "metallicFactor" : 0,
                "roughnessFactor" : 0.6000000238418579
            }
        },
        {
            "alphaMode" : "BLEND",
            "doubleSided" : true,
            "name" : "GrassGrass_MAT.007",
            "pbrMetallicRoughness" : {
                "metallicFactor" : 0,
                "roughnessFactor" : 0.6000000238418579
            }
        }
    ],
    "meshes" : [
        {
            "name" : "defaultMaterial.005",
            "primitives" : [
                {
                    "attributes" : {
                        "POSITION" : 0,
                        "NORMAL" : 1,
                        "TEXCOORD_0" : 2
                    },
                    "indices" : 3,
                    "material" : 0
                }
            ]
        },
        {
            "name" : "Grass:Grass_Master4_Grass:Grass_MAT_0",
            "primitives" : [
                {
                    "attributes" : {
                        "POSITION" : 4,
                        "NORMAL" : 5,
                        "TEXCOORD_0" : 6
                    },
                    "indices" : 7,
                    "material" : 1
                }
            ]
        },
        {
            "name" : "Grass:Grass_low14_Grass:Grass_MAT_0",
            "primitives" : [
                {
                    "attributes" : {
                        "POSITION" : 8,
                        "NORMAL" : 9,
                        "TEXCOORD_0" : 10
                    },
                    "indices" : 11,
                    "material" : 2
                }
            ]
        },
        {
            "name" : "Grass:Grass_low3_Grass:Grass_MAT_0.001",
            "primitives" : [
                {
                    "attributes" : {
                        "POSITION" : 12,
                        "NORMAL" : 13,
                        "TEXCOORD_0" : 14
                    },
                    "indices" : 11,
                    "material" : 3
                }
            ]
        },
        {
            "name" : "Grass:Grass_low4_Grass:Grass_MAT_0",
            "primitives" : [
                {
                    "attributes" : {
                        "POSITION" : 15,
                        "NORMAL" : 16,
                        "TEXCOORD_0" : 17
                    },
                    "indices" : 11,
                    "material" : 4
                }
            ]
        },
        {
            "name" : "Grass:Grass_low1_Grass:Grass_MAT_0.001",
            "primitives" : [
                {
                    "attributes" : {
                        "POSITION" : 18,
                        "NORMAL" : 19,
                        "TEXCOORD_0" : 20
                    },
                    "indices" : 11,
                    "material" : 5
                }
            ]
        },
        {
            "name" : "Grass:Grass_low5_Grass:Grass_MAT_0",
            "primitives" : [
                {
                    "attributes" : {
                        "POSITION" : 21,
                        "NORMAL" : 22,
                        "TEXCOORD_0" : 23
                    },
                    "indices" : 11,
                    "material" : 6
                }
            ]
        },
        {
            "name" : "Grass:Grass_low2_Grass:Grass_MAT_0.001",
            "primitives" : [
                {
                    "attributes" : {
                        "POSITION" : 24,
                        "NORMAL" : 25,
                        "TEXCOORD_0" : 26
                    },
                    "indices" : 11,
                    "material" : 7
                }
            ]
        },
        {
            "name" : "Grass:Grass_Master5_Grass:Grass_MAT_0",
            "primitives" : [
                {
                    "attributes" : {
                        "POSITION" : 27,
                        "NORMAL" : 28,
                        "TEXCOORD_0" : 29
                    },
                    "indices" : 30,
                    "material" : 8
                }
            ]
        }
    ],
    "accessors" : [
        {
            "bufferView" : 0,
            "componentType" : 5126,
            "count" : 547,
            "max" : [
                0.3268499970436096,
                0.7036182880401611,
                0.295764684677124
            ],
            "min" : [
                -0.34626665711402893,
                0.0002549923665355891,
                -0.30901744961738586
            ],
            "type" : "VEC3"
        },
        {
            "bufferView" : 1,
            "componentType" : 5126,
            "count" : 547,
            "type" : "VEC3"
        },
        {
            "bufferView" : 2,
            "componentType" : 5126,
            "count" : 547,
            "type" : "VEC2"
        },
        {
            "bufferView" : 3,
            "componentType" : 5123,
            "count" : 2502,
            "type" : "SCALAR"
        },
        {
            "bufferView" : 4,
            "componentType" : 5126,
            "count" : 96,
            "max" : [
                -224.72314453125,
                843.631591796875,
                132.26202392578125
            ],
            "min" : [
                -534.59375,
                -52.860477447509766,
                -122.84442138671875
            ],
            "type" : "VEC3"
        },
        {
            "bufferView" : 5,
            "componentType" : 5126,
            "count" : 96,
            "type" : "VEC3"
        },
        {
            "bufferView" : 6,
            "componentType" : 5126,
            "count" : 96,
            "type" : "VEC2"
        },
        {
            "bufferView" : 7,
            "componentType" : 5123,
            "count" : 96,
            "type" : "SCALAR"
        },
        {
            "bufferView" : 8,
            "componentType" : 5126,
            "count" : 27,
            "max" : [
                -171.4716796875,
                1058.871337890625,
                93.20198822021484
            ],
            "min" : [
                -581.9912109375,
                -63.57901382446289,
                -95.45457458496094
            ],
            "type" : "VEC3"
        },
        {
            "bufferView" : 9,
            "componentType" : 5126,
            "count" : 27,
            "type" : "VEC3"
        },
        {
            "bufferView" : 10,
            "componentType" : 5126,
            "count" : 27,
            "type" : "VEC2"
        },
        {
            "bufferView" : 11,
            "componentType" : 5123,
            "count" : 96,
            "type" : "SCALAR"
        },
        {
            "bufferView" : 12,
            "componentType" : 5126,
            "count" : 27,
            "max" : [
                17.082763671875,
                1284.23583984375,
                61.27302551269531
            ],
            "min" : [
                -250.3753662109375,
                -44.55440902709961,
                -168.18870544433594
            ],
            "type" : "VEC3"
        },
        {
            "bufferView" : 13,
            "componentType" : 5126,
            "count" : 27,
            "type" : "VEC3"
        },
        {
            "bufferView" : 14,
            "componentType" : 5126,
            "count" : 27,
            "type" : "VEC2"
        },
        {
            "bufferView" : 15,
            "componentType" : 5126,
            "count" : 27,
            "max" : [
                48.619384765625,
                956.16796875,
                -21.49761390686035
            ],
            "min" : [
                -290.826171875,
                -50.826454162597656,
                -592.5296630859375
            ],
            "type" : "VEC3"
        },
        {
            "bufferView" : 16,
            "componentType" : 5126,
            "count" : 27,
            "type" : "VEC3"
        },
        {
            "bufferView" : 17,
            "componentType" : 5126,
            "count" : 27,
            "type" : "VEC2"
        },
        {
            "bufferView" : 18,
            "componentType" : 5126,
            "count" : 27,
            "max" : [
                47.5546875,
                1177.802734375,
                645.3789672851562
            ],
            "min" : [
                -306.1968994140625,
                -44.564537048339844,
                40.35169982910156
            ],
            "type" : "VEC3"
        },
        {
            "bufferView" : 19,
            "componentType" : 5126,
            "count" : 27,
            "type" : "VEC3"
        },
        {
            "bufferView" : 20,
            "componentType" : 5126,
            "count" : 27,
            "type" : "VEC2"
        },
        {
            "bufferView" : 21,
            "componentType" : 5126,
            "count" : 27,
            "max" : [
                348.896728515625,
                1255.0296630859375,
                41.132164001464844
            ],
            "min" : [
                -1.59375,
                -44.540138244628906,
                -314.4919128417969
            ],
            "type" : "VEC3"
        },
        {
            "bufferView" : 22,
            "componentType" : 5126,
            "count" : 27,
            "type" : "VEC3"
        },
        {
            "bufferView" : 23,
            "componentType" : 5126,
            "count" : 27,
            "type" : "VEC2"
        },
        {
            "bufferView" : 24,
            "componentType" : 5126,
            "count" : 27,
            "max" : [
                645.430419921875,
                944.5585327148438,
                320.85791015625
            ],
            "min" : [
                57.227783203125,
                -50.636070251464844,
                -36.89089584350586
            ],
            "type" : "VEC3"
        },
        {
            "bufferView" : 25,
            "componentType" : 5126,
            "count" : 27,
            "type" : "VEC3"
        },
        {
            "bufferView" : 26,
            "componentType" : 5126,
            "count" : 27,
            "type" : "VEC2"
        },
        {
            "bufferView" : 27,
            "componentType" : 5126,
            "count" : 56,
            "max" : [
                369.70751953125,
                627.0025634765625,
                -56.374629974365234
            ],
            "min" : [
                169.28369140625,
                -52.58548355102539,
                -307.8592224121094
            ],
            "type" : "VEC3"
        },
        {
            "bufferView" : 28,
            "componentType" : 5126,
            "count" : 56,
            "type" : "VEC3"
        },
        {
            "bufferView" : 29,
            "componentType" : 5126,
            "count" : 56,
            "type" : "VEC2"
        },
        {
            "bufferView" : 30,
            "componentType" : 5123,
            "count" : 60,
            "type" : "SCALAR"
        }
    ],
    "bufferViews" : [
        {
            "buffer" : 0,
            "byteLength" : 6564,
            "byteOffset" : 0
        },
        {
            "buffer" : 0,
            "byteLength" : 6564,
            "byteOffset" : 6564
        },
        {
            "buffer" : 0,
            "byteLength" : 4376,
            "byteOffset" : 13128
        },
        {
            "buffer" : 0,
            "byteLength" : 5004,
            "byteOffset" : 17504
        },
        {
            "buffer" : 0,
            "byteLength" : 1152,
            "byteOffset" : 22508
        },
        {
            "buffer" : 0,
            "byteLength" : 1152,
            "byteOffset" : 23660
        },
        {
            "buffer" : 0,
            "byteLength" : 768,
            "byteOffset" : 24812
        },
        {
            "buffer" : 0,
            "byteLength" : 192,
            "byteOffset" : 25580
        },
        {
            "buffer" : 0,
            "byteLength" : 324,
            "byteOffset" : 25772
        },
        {
            "buffer" : 0,
            "byteLength" : 324,
            "byteOffset" : 26096
        },
        {
            "buffer" : 0,
            "byteLength" : 216,
            "byteOffset" : 26420
        },
        {
            "buffer" : 0,
            "byteLength" : 192,
            "byteOffset" : 26636
        },
        {
            "buffer" : 0,
            "byteLength" : 324,
            "byteOffset" : 26828
        },
        {
            "buffer" : 0,
            "byteLength" : 324,
            "byteOffset" : 27152
        },
        {
            "buffer" : 0,
            "byteLength" : 216,
            "byteOffset" : 27476
        },
        {
            "buffer" : 0,
            "byteLength" : 324,
            "byteOffset" : 27692
        },
        {
            "buffer" : 0,
            "byteLength" : 324,
            "byteOffset" : 28016
        },
        {
            "buffer" : 0,
            "byteLength" : 216,
            "byteOffset" : 28340
        },
        {
            "buffer" : 0,
            "byteLength" : 324,
            "byteOffset" : 28556
        },
        {
            "buffer" : 0,
            "byteLength" : 324,
            "byteOffset" : 28880
        },
        {
            "buffer" : 0,
            "byteLength" : 216,
            "byteOffset" : 29204
        },
        {
            "buffer" : 0,
            "byteLength" : 324,
            "byteOffset" : 29420
        },
        {
            "buffer" : 0,
            "byteLength" : 324,
            "byteOffset" : 29744
        },
        {
            "buffer" : 0,
            "byteLength" : 216,
            "byteOffset" : 30068
        },
        {
            "buffer" : 0,
            "byteLength" : 324,
            "byteOffset" : 30284
        },
        {
            "buffer" : 0,
            "byteLength" : 324,
            "byteOffset" : 30608
        },
        {
            "buffer" : 0,
            "byteLength" : 216,
            "byteOffset" : 30932
        },
        {
            "buffer" : 0,
            "byteLength" : 672,
            "byteOffset" : 31148
        },
        {
            "buffer" : 0,
            "byteLength" : 672,
            "byteOffset" : 31820
        },
        {
            "buffer" : 0,
            "byteLength" : 448,
            "byteOffset" : 32492
        },
        {
            "buffer" : 0,
            "byteLength" : 120,
            "byteOffset" : 32940
        }
    ],
    "buffers" : [
        {
            "byteLength" : 33060,
            "uri" : "grass.bin"
        }
    ]
}
