{
    "asset" : {
        "generator" : "Khronos glTF Blender I/O v3.2.43",
        "version" : "2.0"
    },
    "scene" : 0,
    "scenes" : [
        {
            "name" : "Scene",
            "nodes" : [
                0
            ]
        }
    ],
    "nodes" : [
        {
            "mesh" : 0,
            "name" : "Grass:Grass_low2_Grass:Grass_MAT_0.001",
            "scale" : [
                0.009999999776482582,
                0.010000001639127731,
                0.010000001639127731
            ],
            "translation" : [
                -0.0007777214050292969,
                0.3594600558280945,
                0.010043500922620296
            ]
        }
    ],
    "materials" : [
        {
            "alphaMode" : "BLEND",
            "doubleSided" : true,
            "name" : "GrassGrass_MAT.006",
            "pbrMetallicRoughness" : {
                "metallicFactor" : 0,
                "roughnessFactor" : 0.6000000238418579
            }
        }
    ],
    "meshes" : [
        {
            "name" : "Grass:Grass_low2_Grass:Grass_MAT_0.001",
            "primitives" : [
                {
                    "attributes" : {
                        "POSITION" : 0,
                        "NORMAL" : 1,
                        "TANGENT" : 2,
                        "TEXCOORD_0" : 3
                    },
                    "indices" : 4,
                    "material" : 0
                }
            ]
        }
    ],
    "accessors" : [
        {
            "bufferView" : 0,
            "componentType" : 5126,
            "count" : 27,
            "max" : [
                645.430419921875,
                944.5585327148438,
                320.85791015625
            ],
            "min" : [
                57.227783203125,
                -50.636070251464844,
                -36.89089584350586
            ],
            "type" : "VEC3"
        },
        {
            "bufferView" : 1,
            "componentType" : 5126,
            "count" : 27,
            "type" : "VEC3"
        },
        {
            "bufferView" : 2,
            "componentType" : 5126,
            "count" : 27,
            "type" : "VEC4"
        },
        {
            "bufferView" : 3,
            "componentType" : 5126,
            "count" : 27,
            "type" : "VEC2"
        },
        {
            "bufferView" : 4,
            "componentType" : 5123,
            "count" : 96,
            "type" : "SCALAR"
        }
    ],
    "bufferViews" : [
        {
            "buffer" : 0,
            "byteLength" : 324,
            "byteOffset" : 0
        },
        {
            "buffer" : 0,
            "byteLength" : 324,
            "byteOffset" : 324
        },
        {
            "buffer" : 0,
            "byteLength" : 432,
            "byteOffset" : 648
        },
        {
            "buffer" : 0,
            "byteLength" : 216,
            "byteOffset" : 1080
        },
        {
            "buffer" : 0,
            "byteLength" : 192,
            "byteOffset" : 1296
        }
    ],
    "buffers" : [
        {
            "byteLength" : 1488,
            "uri" : "grass2.bin"
        }
    ]
}
