{
    "asset" : {
        "generator" : "Khronos glTF Blender I/O v3.2.43",
        "version" : "2.0"
    },
    "scene" : 0,
    "scenes" : [
        {
            "name" : "Scene",
            "nodes" : [
                5
            ]
        }
    ],
    "nodes" : [
        {
            "name" : "Tree_03_Ground_Baked",
            "translation" : [
                0.19654487073421478,
                -0.15461315214633942,
                -0.22367282211780548
            ]
        },
        {
            "mesh" : 0,
            "name" : "TreeBark_03_Clean_MergedBake_Bake1.001_0"
        },
        {
            "children" : [
                0,
                1
            ],
            "name" : "TreeBark_03_Clean",
            "scale" : [
                100,
                100,
                100
            ]
        },
        {
            "children" : [
                2
            ],
            "name" : "RootNode"
        },
        {
            "children" : [
                3
            ],
            "name" : "ffaa11fc79074a4297dca012c19fa333.fbx",
            "rotation" : [
                0.7071068286895752,
                0,
                0,
                0.7071067094802856
            ]
        },
        {
            "children" : [
                4
            ],
            "name" : "Sketchfab_model",
            "rotation" : [
                -0.7071068286895752,
                0,
                0,
                0.7071067094802856
            ]
        }
    ],
    "materials" : [
        {
            "doubleSided" : true,
            "name" : "MergedBake_Bake1.001",
            "pbrMetallicRoughness" : {
                "baseColorFactor" : [
                    0.800000011920929,
                    0.800000011920929,
                    0.800000011920929,
                    1
                ],
                "metallicFactor" : 0
            }
        }
    ],
    "meshes" : [
        {
            "name" : "TreeBark_03_Clean_MergedBake_Bake1.001_0",
            "primitives" : [
                {
                    "attributes" : {
                        "POSITION" : 0,
                        "NORMAL" : 1,
                        "TANGENT" : 2,
                        "TEXCOORD_0" : 3,
                        "TEXCOORD_1" : 4
                    },
                    "indices" : 5,
                    "material" : 0
                }
            ]
        }
    ],
    "accessors" : [
        {
            "bufferView" : 0,
            "componentType" : 5126,
            "count" : 2535,
            "max" : [
                1.2520339488983154,
                5.631514549255371,
                1.6723648309707642
            ],
            "min" : [
                -2.1616690158843994,
                -0.03375541418790817,
                -1.894318699836731
            ],
            "type" : "VEC3"
        },
        {
            "bufferView" : 1,
            "componentType" : 5126,
            "count" : 2535,
            "type" : "VEC3"
        },
        {
            "bufferView" : 2,
            "componentType" : 5126,
            "count" : 2535,
            "type" : "VEC4"
        },
        {
            "bufferView" : 3,
            "componentType" : 5126,
            "count" : 2535,
            "type" : "VEC2"
        },
        {
            "bufferView" : 4,
            "componentType" : 5126,
            "count" : 2535,
            "type" : "VEC2"
        },
        {
            "bufferView" : 5,
            "componentType" : 5123,
            "count" : 8688,
            "type" : "SCALAR"
        }
    ],
    "bufferViews" : [
        {
            "buffer" : 0,
            "byteLength" : 30420,
            "byteOffset" : 0
        },
        {
            "buffer" : 0,
            "byteLength" : 30420,
            "byteOffset" : 30420
        },
        {
            "buffer" : 0,
            "byteLength" : 40560,
            "byteOffset" : 60840
        },
        {
            "buffer" : 0,
            "byteLength" : 20280,
            "byteOffset" : 101400
        },
        {
            "buffer" : 0,
            "byteLength" : 20280,
            "byteOffset" : 121680
        },
        {
            "buffer" : 0,
            "byteLength" : 17376,
            "byteOffset" : 141960
        }
    ],
    "buffers" : [
        {
            "byteLength" : 159336,
            "uri" : "tree.bin"
        }
    ]
}
