{
    "asset" : {
        "generator" : "Khronos glTF Blender I/O v3.2.43",
        "version" : "2.0"
    },
    "extensionsUsed" : [
        "KHR_materials_unlit"
    ],
    "scene" : 0,
    "scenes" : [
        {
            "name" : "Scene",
            "nodes" : [
                3
            ]
        }
    ],
    "nodes" : [
        {
            "mesh" : 0,
            "name" : "defaultMaterial"
        },
        {
            "children" : [
                0
            ],
            "name" : "Cube.006"
        },
        {
            "children" : [
                1
            ],
            "name" : "Collada visual scene group"
        },
        {
            "children" : [
                2
            ],
            "name" : "Sketchfab_model",
            "scale" : [
                0.10000000149011612,
                0.10000000149011612,
                0.10000000149011612
            ]
        }
    ],
    "materials" : [
        {
            "doubleSided" : true,
            "extensions" : {
                "KHR_materials_unlit" : {}
            },
            "name" : "mushroom_friend.005",
            "pbrMetallicRoughness" : {
                "metallicFactor" : 0,
                "roughnessFactor" : 0.9
            }
        }
    ],
    "meshes" : [
        {
            "name" : "defaultMaterial.005",
            "primitives" : [
                {
                    "attributes" : {
                        "POSITION" : 0,
                        "NORMAL" : 1,
                        "TANGENT" : 2,
                        "TEXCOORD_0" : 3
                    },
                    "indices" : 4,
                    "material" : 0
                }
            ]
        }
    ],
    "accessors" : [
        {
            "bufferView" : 0,
            "componentType" : 5126,
            "count" : 547,
            "max" : [
                0.3268499970436096,
                0.7036182880401611,
                0.295764684677124
            ],
            "min" : [
                -0.34626665711402893,
                0.0002549923665355891,
                -0.30901744961738586
            ],
            "type" : "VEC3"
        },
        {
            "bufferView" : 1,
            "componentType" : 5126,
            "count" : 547,
            "type" : "VEC3"
        },
        {
            "bufferView" : 2,
            "componentType" : 5126,
            "count" : 547,
            "type" : "VEC4"
        },
        {
            "bufferView" : 3,
            "componentType" : 5126,
            "count" : 547,
            "type" : "VEC2"
        },
        {
            "bufferView" : 4,
            "componentType" : 5123,
            "count" : 2502,
            "type" : "SCALAR"
        }
    ],
    "bufferViews" : [
        {
            "buffer" : 0,
            "byteLength" : 6564,
            "byteOffset" : 0
        },
        {
            "buffer" : 0,
            "byteLength" : 6564,
            "byteOffset" : 6564
        },
        {
            "buffer" : 0,
            "byteLength" : 8752,
            "byteOffset" : 13128
        },
        {
            "buffer" : 0,
            "byteLength" : 4376,
            "byteOffset" : 21880
        },
        {
            "buffer" : 0,
            "byteLength" : 5004,
            "byteOffset" : 26256
        }
    ],
    "buffers" : [
        {
            "byteLength" : 31260,
            "uri" : "shroom.bin"
        }
    ]
}
