{
    "asset" : {
        "generator" : "Khronos glTF Blender I/O v3.2.43",
        "version" : "2.0"
    },
    "scene" : 0,
    "scenes" : [
        {
            "name" : "Scene",
            "nodes" : [
                0
            ]
        }
    ],
    "nodes" : [
        {
            "mesh" : 0,
            "name" : "wall_stone_stone_wall_low_0"
        }
    ],
    "materials" : [
        {
            "doubleSided" : true,
            "name" : "stone_wall_low.002",
            "pbrMetallicRoughness" : {}
        }
    ],
    "meshes" : [
        {
            "name" : "wall_stone_stone_wall_low_0.001",
            "primitives" : [
                {
                    "attributes" : {
                        "POSITION" : 0,
                        "NORMAL" : 1,
                        "TANGENT" : 2,
                        "TEXCOORD_0" : 3
                    },
                    "indices" : 4,
                    "material" : 0
                }
            ]
        }
    ],
    "accessors" : [
        {
            "bufferView" : 0,
            "componentType" : 5126,
            "count" : 784,
            "max" : [
                1.2686115503311157,
                0.9260829091072083,
                0.15170566737651825
            ],
            "min" : [
                -1.1920536756515503,
                -1.0796937942504883,
                -0.15103350579738617
            ],
            "type" : "VEC3"
        },
        {
            "bufferView" : 1,
            "componentType" : 5126,
            "count" : 784,
            "type" : "VEC3"
        },
        {
            "bufferView" : 2,
            "componentType" : 5126,
            "count" : 784,
            "type" : "VEC4"
        },
        {
            "bufferView" : 3,
            "componentType" : 5126,
            "count" : 784,
            "type" : "VEC2"
        },
        {
            "bufferView" : 4,
            "componentType" : 5123,
            "count" : 3732,
            "type" : "SCALAR"
        }
    ],
    "bufferViews" : [
        {
            "buffer" : 0,
            "byteLength" : 9408,
            "byteOffset" : 0
        },
        {
            "buffer" : 0,
            "byteLength" : 9408,
            "byteOffset" : 9408
        },
        {
            "buffer" : 0,
            "byteLength" : 12544,
            "byteOffset" : 18816
        },
        {
            "buffer" : 0,
            "byteLength" : 6272,
            "byteOffset" : 31360
        },
        {
            "buffer" : 0,
            "byteLength" : 7464,
            "byteOffset" : 37632
        }
    ],
    "buffers" : [
        {
            "byteLength" : 45096,
            "uri" : "wall.bin"
        }
    ]
}
