{
    "asset" : {
        "generator" : "Khronos glTF Blender I/O v3.2.43",
        "version" : "2.0"
    },
    "scene" : 0,
    "scenes" : [
        {
            "name" : "Scene",
            "nodes" : [
                0,
                5
            ]
        }
    ],
    "nodes" : [
        {
            "name" : "Tree_03_Ground_Baked"
        },
        {
            "mesh" : 0,
            "name" : "birch_tree_SC_free_birch_red_mat_0"
        },
        {
            "children" : [
                1
            ],
            "name" : "birch_tree_SC_free"
        },
        {
            "children" : [
                2
            ],
            "name" : "RootNode"
        },
        {
            "children" : [
                3
            ],
            "name" : "9f0524934cc54779aa1fdf0de5be3f5b.fbx"
        },
        {
            "children" : [
                4
            ],
            "name" : "Sketchfab_model"
        }
    ],
    "materials" : [
        {
            "doubleSided" : true,
            "name" : "birch_red_mat",
            "pbrMetallicRoughness" : {
                "baseColorTexture" : {
                    "index" : 0
                },
                "metallicFactor" : 0
            }
        }
    ],
    "meshes" : [
        {
            "name" : "birch_tree_SC_free_birch_red_mat_0",
            "primitives" : [
                {
                    "attributes" : {
                        "POSITION" : 0,
                        "NORMAL" : 1,
                        "TANGENT" : 2,
                        "TEXCOORD_0" : 3
                    },
                    "indices" : 4,
                    "material" : 0
                }
            ]
        }
    ],
    "textures" : [
        {
            "sampler" : 0,
            "source" : 0
        }
    ],
    "images" : [
        {
            "mimeType" : "image/png",
            "name" : "birch_red_mat_baseColor",
            "uri" : "birch_red_mat_baseColor.png"
        }
    ],
    "accessors" : [
        {
            "bufferView" : 0,
            "componentType" : 5126,
            "count" : 1826,
            "max" : [
                1.4385730028152466,
                3.9249024391174316,
                1.0681002140045166
            ],
            "min" : [
                -0.9288144111633301,
                -0.2914547324180603,
                -1.1074633598327637
            ],
            "type" : "VEC3"
        },
        {
            "bufferView" : 1,
            "componentType" : 5126,
            "count" : 1826,
            "type" : "VEC3"
        },
        {
            "bufferView" : 2,
            "componentType" : 5126,
            "count" : 1826,
            "type" : "VEC4"
        },
        {
            "bufferView" : 3,
            "componentType" : 5126,
            "count" : 1826,
            "type" : "VEC2"
        },
        {
            "bufferView" : 4,
            "componentType" : 5123,
            "count" : 5256,
            "type" : "SCALAR"
        }
    ],
    "bufferViews" : [
        {
            "buffer" : 0,
            "byteLength" : 21912,
            "byteOffset" : 0
        },
        {
            "buffer" : 0,
            "byteLength" : 21912,
            "byteOffset" : 21912
        },
        {
            "buffer" : 0,
            "byteLength" : 29216,
            "byteOffset" : 43824
        },
        {
            "buffer" : 0,
            "byteLength" : 14608,
            "byteOffset" : 73040
        },
        {
            "buffer" : 0,
            "byteLength" : 10512,
            "byteOffset" : 87648
        }
    ],
    "samplers" : [
        {
            "magFilter" : 9729,
            "minFilter" : 9987
        }
    ],
    "buffers" : [
        {
            "byteLength" : 98160,
            "uri" : "birch.bin"
        }
    ]
}
