{
    "asset" : {
        "generator" : "Khronos glTF Blender I/O v3.2.43",
        "version" : "2.0"
    },
    "scene" : 0,
    "scenes" : [
        {
            "name" : "Scene",
            "nodes" : [
                0
            ]
        }
    ],
    "nodes" : [
        {
            "mesh" : 0,
            "name" : "Mid_2_MID_0"
        }
    ],
    "materials" : [
        {
            "doubleSided" : true,
            "name" : "material",
            "normalTexture" : {
                "index" : 0
            },
            "occlusionTexture" : {
                "index" : 1
            },
            "pbrMetallicRoughness" : {
                "baseColorTexture" : {
                    "index" : 2
                },
                "metallicFactor" : 0,
                "metallicRoughnessTexture" : {
                    "index" : 1
                },
                "roughnessFactor" : 0.9015756845474243
            }
        }
    ],
    "meshes" : [
        {
            "name" : "Mid_2_MID_0",
            "primitives" : [
                {
                    "attributes" : {
                        "POSITION" : 0,
                        "NORMAL" : 1,
                        "TANGENT" : 2,
                        "TEXCOORD_0" : 3
                    },
                    "indices" : 4,
                    "material" : 0
                }
            ]
        }
    ],
    "textures" : [
        {
            "sampler" : 0,
            "source" : 0
        },
        {
            "sampler" : 0,
            "source" : 1
        },
        {
            "sampler" : 0,
            "source" : 2
        }
    ],
    "images" : [
        {
            "mimeType" : "image/png",
            "name" : "material_normal",
            "uri" : "material_normal.png"
        },
        {
            "mimeType" : "image/png",
            "name" : "material_metallicRoughness",
            "uri" : "material_metallicRoughness.png"
        },
        {
            "mimeType" : "image/png",
            "name" : "material_baseColor",
            "uri" : "material_baseColor.png"
        }
    ],
    "accessors" : [
        {
            "bufferView" : 0,
            "componentType" : 5126,
            "count" : 1818,
            "max" : [
                0.6815384030342102,
                0.5448075532913208,
                0.7447881698608398
            ],
            "min" : [
                -0.7983834743499756,
                -0.6082810759544373,
                -0.9144813418388367
            ],
            "type" : "VEC3"
        },
        {
            "bufferView" : 1,
            "componentType" : 5126,
            "count" : 1818,
            "type" : "VEC3"
        },
        {
            "bufferView" : 2,
            "componentType" : 5126,
            "count" : 1818,
            "type" : "VEC4"
        },
        {
            "bufferView" : 3,
            "componentType" : 5126,
            "count" : 1818,
            "type" : "VEC2"
        },
        {
            "bufferView" : 4,
            "componentType" : 5123,
            "count" : 9504,
            "type" : "SCALAR"
        }
    ],
    "bufferViews" : [
        {
            "buffer" : 0,
            "byteLength" : 21816,
            "byteOffset" : 0
        },
        {
            "buffer" : 0,
            "byteLength" : 21816,
            "byteOffset" : 21816
        },
        {
            "buffer" : 0,
            "byteLength" : 29088,
            "byteOffset" : 43632
        },
        {
            "buffer" : 0,
            "byteLength" : 14544,
            "byteOffset" : 72720
        },
        {
            "buffer" : 0,
            "byteLength" : 19008,
            "byteOffset" : 87264
        }
    ],
    "samplers" : [
        {
            "magFilter" : 9729,
            "minFilter" : 9987
        }
    ],
    "buffers" : [
        {
            "byteLength" : 106272,
            "uri" : "rock1.bin"
        }
    ]
}
