{
    "asset" : {
        "generator" : "Khronos glTF Blender I/O v3.2.43",
        "version" : "2.0"
    },
    "scene" : 0,
    "scenes" : [
        {
            "name" : "Scene",
            "nodes" : [
                0
            ]
        }
    ],
    "nodes" : [
        {
            "mesh" : 0,
            "name" : "Stone_low_Stone_MAT_0"
        }
    ],
    "materials" : [
        {
            "doubleSided" : true,
            "name" : "Stone_MAT",
            "normalTexture" : {
                "index" : 0
            },
            "pbrMetallicRoughness" : {
                "baseColorTexture" : {
                    "index" : 1
                },
                "metallicRoughnessTexture" : {
                    "index" : 2
                }
            }
        }
    ],
    "meshes" : [
        {
            "name" : "Stone_low_Stone_MAT_0",
            "primitives" : [
                {
                    "attributes" : {
                        "POSITION" : 0,
                        "NORMAL" : 1,
                        "TANGENT" : 2,
                        "TEXCOORD_0" : 3,
                        "TEXCOORD_1" : 4,
                        "TEXCOORD_2" : 5
                    },
                    "indices" : 6,
                    "material" : 0
                }
            ]
        }
    ],
    "textures" : [
        {
            "sampler" : 0,
            "source" : 0
        },
        {
            "sampler" : 0,
            "source" : 1
        },
        {
            "sampler" : 0,
            "source" : 2
        }
    ],
    "images" : [
        {
            "mimeType" : "image/png",
            "name" : "Stone_MAT_normal",
            "uri" : "Stone_MAT_normal.png"
        },
        {
            "mimeType" : "image/png",
            "name" : "Stone_MAT_baseColor",
            "uri" : "Stone_MAT_baseColor.png"
        },
        {
            "mimeType" : "image/png",
            "name" : "Stone_MAT_metallicRoughness",
            "uri" : "Stone_MAT_metallicRoughness.png"
        }
    ],
    "accessors" : [
        {
            "bufferView" : 0,
            "componentType" : 5126,
            "count" : 710,
            "max" : [
                1.6903948783874512,
                1.6407221555709839,
                1.8593313694000244
            ],
            "min" : [
                -2.1379594802856445,
                -1.1858696937561035,
                -2.028468132019043
            ],
            "type" : "VEC3"
        },
        {
            "bufferView" : 1,
            "componentType" : 5126,
            "count" : 710,
            "type" : "VEC3"
        },
        {
            "bufferView" : 2,
            "componentType" : 5126,
            "count" : 710,
            "type" : "VEC4"
        },
        {
            "bufferView" : 3,
            "componentType" : 5126,
            "count" : 710,
            "type" : "VEC2"
        },
        {
            "bufferView" : 4,
            "componentType" : 5126,
            "count" : 710,
            "type" : "VEC2"
        },
        {
            "bufferView" : 5,
            "componentType" : 5126,
            "count" : 710,
            "type" : "VEC2"
        },
        {
            "bufferView" : 6,
            "componentType" : 5123,
            "count" : 2658,
            "type" : "SCALAR"
        }
    ],
    "bufferViews" : [
        {
            "buffer" : 0,
            "byteLength" : 8520,
            "byteOffset" : 0
        },
        {
            "buffer" : 0,
            "byteLength" : 8520,
            "byteOffset" : 8520
        },
        {
            "buffer" : 0,
            "byteLength" : 11360,
            "byteOffset" : 17040
        },
        {
            "buffer" : 0,
            "byteLength" : 5680,
            "byteOffset" : 28400
        },
        {
            "buffer" : 0,
            "byteLength" : 5680,
            "byteOffset" : 34080
        },
        {
            "buffer" : 0,
            "byteLength" : 5680,
            "byteOffset" : 39760
        },
        {
            "buffer" : 0,
            "byteLength" : 5316,
            "byteOffset" : 45440
        }
    ],
    "samplers" : [
        {
            "magFilter" : 9729,
            "minFilter" : 9987
        }
    ],
    "buffers" : [
        {
            "byteLength" : 50756,
            "uri" : "rock4.bin"
        }
    ]
}
