{
    "asset" : {
        "generator" : "Khronos glTF Blender I/O v3.2.43",
        "version" : "2.0"
    },
    "scene" : 0,
    "scenes" : [
        {
            "name" : "Scene",
            "nodes" : [
                0
            ]
        }
    ],
    "nodes" : [
        {
            "mesh" : 0,
            "name" : "Big_5_BiG_0"
        }
    ],
    "materials" : [
        {
            "doubleSided" : true,
            "name" : "material_1.002",
            "pbrMetallicRoughness" : {
                "baseColorFactor" : [
                    0.800000011920929,
                    0.800000011920929,
                    0.800000011920929,
                    1
                ],
                "metallicFactor" : 0,
                "roughnessFactor" : 0.944136917591095
            }
        }
    ],
    "meshes" : [
        {
            "name" : "Big_5_BiG_0.002",
            "primitives" : [
                {
                    "attributes" : {
                        "POSITION" : 0,
                        "NORMAL" : 1,
                        "TANGENT" : 2,
                        "TEXCOORD_0" : 3
                    },
                    "indices" : 4,
                    "material" : 0
                }
            ]
        }
    ],
    "accessors" : [
        {
            "bufferView" : 0,
            "componentType" : 5126,
            "count" : 1654,
            "max" : [
                1.3484503030776978,
                0.7073389291763306,
                0.4764210283756256
            ],
            "min" : [
                -1.4602631330490112,
                -0.5501407384872437,
                -0.5667784214019775
            ],
            "type" : "VEC3"
        },
        {
            "bufferView" : 1,
            "componentType" : 5126,
            "count" : 1654,
            "type" : "VEC3"
        },
        {
            "bufferView" : 2,
            "componentType" : 5126,
            "count" : 1654,
            "type" : "VEC4"
        },
        {
            "bufferView" : 3,
            "componentType" : 5126,
            "count" : 1654,
            "type" : "VEC2"
        },
        {
            "bufferView" : 4,
            "componentType" : 5123,
            "count" : 8667,
            "type" : "SCALAR"
        }
    ],
    "bufferViews" : [
        {
            "buffer" : 0,
            "byteLength" : 19848,
            "byteOffset" : 0
        },
        {
            "buffer" : 0,
            "byteLength" : 19848,
            "byteOffset" : 19848
        },
        {
            "buffer" : 0,
            "byteLength" : 26464,
            "byteOffset" : 39696
        },
        {
            "buffer" : 0,
            "byteLength" : 13232,
            "byteOffset" : 66160
        },
        {
            "buffer" : 0,
            "byteLength" : 17334,
            "byteOffset" : 79392
        }
    ],
    "buffers" : [
        {
            "byteLength" : 96728,
            "uri" : "rock3.bin"
        }
    ]
}
