{
    "asset" : {
        "generator" : "Khronos glTF Blender I/O v3.2.43",
        "version" : "2.0"
    },
    "scene" : 0,
    "scenes" : [
        {
            "name" : "Scene",
            "nodes" : [
                0
            ]
        }
    ],
    "nodes" : [
        {
            "mesh" : 0,
            "name" : "Flow2_glowing_plants_0",
            "scale" : [
                0.09999999403953552,
                0.10000001639127731,
                0.10000001639127731
            ],
            "translation" : [
                1.0019272565841675,
                0,
                -0.5973465442657471
            ]
        }
    ],
    "materials" : [
        {
            "doubleSided" : true,
            "name" : "glowing_plants",
            "pbrMetallicRoughness" : {
                "baseColorFactor" : [
                    0.800000011920929,
                    0.800000011920929,
                    0.800000011920929,
                    1
                ],
                "metallicFactor" : 0
            }
        }
    ],
    "meshes" : [
        {
            "name" : "Flow2_glowing_plants_0",
            "primitives" : [
                {
                    "attributes" : {
                        "POSITION" : 0,
                        "NORMAL" : 1,
                        "TANGENT" : 2,
                        "TEXCOORD_0" : 3
                    },
                    "indices" : 4,
                    "material" : 0
                }
            ]
        }
    ],
    "accessors" : [
        {
            "bufferView" : 0,
            "componentType" : 5126,
            "count" : 156,
            "max" : [
                5.429059028625488,
                12.538455963134766,
                6.579146862030029
            ],
            "min" : [
                -5.956421852111816,
                -4.76837158203125e-07,
                -6.948187351226807
            ],
            "type" : "VEC3"
        },
        {
            "bufferView" : 1,
            "componentType" : 5126,
            "count" : 156,
            "type" : "VEC3"
        },
        {
            "bufferView" : 2,
            "componentType" : 5126,
            "count" : 156,
            "type" : "VEC4"
        },
        {
            "bufferView" : 3,
            "componentType" : 5126,
            "count" : 156,
            "type" : "VEC2"
        },
        {
            "bufferView" : 4,
            "componentType" : 5123,
            "count" : 576,
            "type" : "SCALAR"
        }
    ],
    "bufferViews" : [
        {
            "buffer" : 0,
            "byteLength" : 1872,
            "byteOffset" : 0
        },
        {
            "buffer" : 0,
            "byteLength" : 1872,
            "byteOffset" : 1872
        },
        {
            "buffer" : 0,
            "byteLength" : 2496,
            "byteOffset" : 3744
        },
        {
            "buffer" : 0,
            "byteLength" : 1248,
            "byteOffset" : 6240
        },
        {
            "buffer" : 0,
            "byteLength" : 1152,
            "byteOffset" : 7488
        }
    ],
    "buffers" : [
        {
            "byteLength" : 8640,
            "uri" : "gplant.bin"
        }
    ]
}
