{
    "asset" : {
        "generator" : "Khronos glTF Blender I/O v3.2.43",
        "version" : "2.0"
    },
    "scene" : 0,
    "scenes" : [
        {
            "name" : "Scene",
            "nodes" : [
                0
            ]
        }
    ],
    "nodes" : [
        {
            "mesh" : 0,
            "name" : "tree_pine_SC_04_pine_tree_red_mat_0"
        }
    ],
    "materials" : [
        {
            "doubleSided" : true,
            "name" : "pine_tree_red_mat.001",
            "pbrMetallicRoughness" : {
                "baseColorFactor" : [
                    0.800000011920929,
                    0.800000011920929,
                    0.800000011920929,
                    1
                ],
                "metallicFactor" : 0
            }
        }
    ],
    "meshes" : [
        {
            "name" : "tree_pine_SC_04_pine_tree_red_mat_0.001",
            "primitives" : [
                {
                    "attributes" : {
                        "POSITION" : 0,
                        "NORMAL" : 1,
                        "TANGENT" : 2,
                        "TEXCOORD_0" : 3
                    },
                    "indices" : 4,
                    "material" : 0
                }
            ]
        }
    ],
    "accessors" : [
        {
            "bufferView" : 0,
            "componentType" : 5126,
            "count" : 1182,
            "max" : [
                2.939828395843506,
                9.795948028564453,
                2.4123728275299072
            ],
            "min" : [
                -2.3354625701904297,
                -1.0658224821090698,
                -2.8511271476745605
            ],
            "type" : "VEC3"
        },
        {
            "bufferView" : 1,
            "componentType" : 5126,
            "count" : 1182,
            "type" : "VEC3"
        },
        {
            "bufferView" : 2,
            "componentType" : 5126,
            "count" : 1182,
            "type" : "VEC4"
        },
        {
            "bufferView" : 3,
            "componentType" : 5126,
            "count" : 1182,
            "type" : "VEC2"
        },
        {
            "bufferView" : 4,
            "componentType" : 5123,
            "count" : 2628,
            "type" : "SCALAR"
        }
    ],
    "bufferViews" : [
        {
            "buffer" : 0,
            "byteLength" : 14184,
            "byteOffset" : 0
        },
        {
            "buffer" : 0,
            "byteLength" : 14184,
            "byteOffset" : 14184
        },
        {
            "buffer" : 0,
            "byteLength" : 18912,
            "byteOffset" : 28368
        },
        {
            "buffer" : 0,
            "byteLength" : 9456,
            "byteOffset" : 47280
        },
        {
            "buffer" : 0,
            "byteLength" : 5256,
            "byteOffset" : 56736
        }
    ],
    "buffers" : [
        {
            "byteLength" : 61992,
            "uri" : "pine.bin"
        }
    ]
}
